<?xml version="1.0" encoding="utf-8"?>
<!-- Generator: Adobe Illustrator 21.0.0, SVG Export Plug-In . SVG Version: 6.00 Build 0)  -->
<svg version="1.1" id="Livello_1" xmlns="http://www.w3.org/2000/svg" xmlns:xlink="http://www.w3.org/1999/xlink" x="0px" y="0px"
	 viewBox="0 0 359 240" style="enable-background:new 0 0 359 240;" xml:space="preserve">
<style type="text/css">
	.st0{fill:#FF0D19;}
</style>
<g>
	<g>
		<g>
			<g>
				<path class="st0" d="M171.3,148.9v8.5c0,3.1,2.5,5.6,5.6,5.6l0,0c3.1,0,5.6-2.5,5.6-5.6v-8.5l-5.6-5L171.3,148.9z"/>
				<path d="M187.5,117.8c-1.1-1.2-2.7-1.8-4.2-1.8c-1.5,0-2.9,0.5-4,1.6l-2.4,2.3l-2.4-2.3c-1.1-1.1-2.6-1.6-4-1.6
					c-1.5,0-3.1,0.6-4.2,1.8c-2.2,2.3-2.2,6,0.2,8.2l2.1,2l8.4,8.1l8.4-8.1l2.1-2C189.6,123.8,189.7,120.2,187.5,117.8z"/>
				<g>
					<path d="M164.1,151.8c-5.8,0-10.9-3.2-13.4-8.6l-0.8-1.7c-0.4-0.8,0-1.7,0.8-2.1c0.8-0.4,1.7,0,2.1,0.8l0.8,1.7
						c2.5,5.4,7.5,7,11.4,6.8c3.9-0.3,8.6-2.6,10.4-8.2c0.3-0.8,1.1-1.3,2-1c0.8,0.3,1.3,1.1,1,2c-1.8,6-6.9,10-13.1,10.5
						C164.8,151.8,164.4,151.8,164.1,151.8z"/>
					<path d="M189.5,151.8c-5.8,0-10.9-3.2-13.4-8.6l-0.8-1.7c-0.4-0.8,0-1.7,0.8-2.1c0.8-0.4,1.7,0,2.1,0.8l0.8,1.7
						c2.5,5.4,7.5,7,11.4,6.8c3.9-0.3,8.6-2.6,10.4-8.2l3,0.9c-1.8,6-6.9,10-13.1,10.5C190.3,151.8,189.9,151.8,189.5,151.8z"/>
					<path d="M176.7,144.2c-0.9,0-1.6-0.7-1.6-1.6v-15.2c0-0.9,0.7-1.6,1.6-1.6c0.9,0,1.6,0.7,1.6,1.6v15.2
						C178.3,143.5,177.6,144.2,176.7,144.2z"/>
				</g>
				<g>
					<circle cx="157.1" cy="100.5" r="5"/>
					<circle cx="196.5" cy="100.5" r="5"/>
				</g>
				<g>
					<g>
						<circle cx="166.6" cy="139.5" r="1.3"/>
						<circle cx="162.3" cy="138.3" r="1.3"/>
						<circle cx="162.3" cy="142.4" r="1.3"/>
					</g>
					<g>
						<circle cx="187" cy="139.5" r="1.3"/>
						<circle cx="191.3" cy="138.3" r="1.3"/>
						<circle cx="191.3" cy="142.4" r="1.3"/>
					</g>
				</g>
			</g>
			<path d="M196.5,81.4c-0.3,0-0.5-0.1-0.8-0.2l-0.1-0.1c-11.7-6.6-26.2-6.6-37.8,0.1c-0.7,0.4-1.7,0.2-2.1-0.6
				c-0.4-0.7-0.2-1.7,0.6-2.1c12.6-7.2,28.3-7.2,40.9-0.1l0.1,0.1c0.8,0.4,1,1.4,0.6,2.1C197.6,81.1,197.1,81.4,196.5,81.4z"/>
			<path d="M144.2,87.2c-0.8,0-1.5-0.7-1.6-1.5c-0.1-3-0.9-29.3,4.7-35.2c0.6-0.6,1.6-0.7,2.2-0.1c1.9,1.7,18.5,17.1,16.6,24.9
				c-0.2,0.8-1,1.4-1.9,1.2c-0.8-0.2-1.4-1-1.2-1.9c1-4.2-7.8-14.4-14.4-20.6c-2.8,5.6-3.3,21.8-3,31.6
				C145.8,86.4,145.1,87.2,144.2,87.2C144.2,87.2,144.2,87.2,144.2,87.2z"/>
			<path d="M208.7,87.2C208.6,87.2,208.6,87.2,208.7,87.2c-0.9,0-1.6-0.8-1.6-1.6c0.4-9.8-0.2-26-3-31.6
				c-6.6,6.2-15.4,16.4-14.4,20.6c0.2,0.8-0.3,1.7-1.2,1.9c-0.8,0.2-1.7-0.3-1.9-1.2c-1.8-7.8,14.8-23.1,16.6-24.9
				c0.6-0.6,1.6-0.5,2.2,0.1c5.6,5.9,4.8,32.2,4.7,35.2C210.2,86.5,209.5,87.2,208.7,87.2z"/>
		</g>
		<g>
			<path d="M115.5,182.1h-4.2l-1,3.4h-2.3l4.1-12.4h2.6l4,12.4h-2.3L115.5,182.1z M115.1,180.3l-0.4-1.5c-0.4-1.3-0.8-2.7-1.1-4.1
				h-0.1c-0.3,1.4-0.7,2.8-1.1,4.1l-0.4,1.5H115.1z"/>
			<path d="M120.9,185.1L120.9,185.1c-0.5-0.4-0.8-0.9-0.8-1.6c0-0.7,0.5-1.3,1-1.7v-0.1c-0.6-0.5-1.2-1.4-1.2-2.5
				c0-2.1,1.7-3.3,3.7-3.3c0.5,0,1,0.1,1.4,0.2h3.3v1.6h-1.7c0.3,0.4,0.5,0.9,0.5,1.6c0,2.1-1.6,3.2-3.5,3.2c-0.4,0-0.9-0.1-1.3-0.2
				c-0.3,0.2-0.5,0.5-0.5,0.9c0,0.5,0.4,0.9,1.5,0.9h1.7c2.2,0,3.4,0.7,3.4,2.3c0,1.8-1.9,3.3-5,3.3c-2.2,0-3.9-0.8-3.9-2.4
				C119.5,186.3,120,185.7,120.9,185.1z M123.8,188.1c1.5,0,2.5-0.7,2.5-1.5c0-0.7-0.6-0.9-1.7-0.9h-1.3c-0.5,0-0.9,0-1.3-0.1
				c-0.5,0.4-0.7,0.8-0.7,1.2C121.4,187.6,122.3,188.1,123.8,188.1z M125.1,179.2c0-1.2-0.7-1.8-1.6-1.8c-0.9,0-1.6,0.7-1.6,1.8
				c0,1.2,0.7,1.9,1.6,1.9C124.4,181.1,125.1,180.4,125.1,179.2z"/>
			<path d="M130.7,185.1L130.7,185.1c-0.5-0.4-0.8-0.9-0.8-1.6c0-0.7,0.5-1.3,1-1.7v-0.1c-0.6-0.5-1.2-1.4-1.2-2.5
				c0-2.1,1.7-3.3,3.7-3.3c0.5,0,1,0.1,1.4,0.2h3.3v1.6h-1.7c0.3,0.4,0.5,0.9,0.5,1.6c0,2.1-1.6,3.2-3.5,3.2c-0.4,0-0.9-0.1-1.3-0.2
				c-0.3,0.2-0.5,0.5-0.5,0.9c0,0.5,0.4,0.9,1.5,0.9h1.7c2.2,0,3.4,0.7,3.4,2.3c0,1.8-1.9,3.3-5,3.3c-2.2,0-3.9-0.8-3.9-2.4
				C129.4,186.3,129.9,185.7,130.7,185.1z M133.6,188.1c1.5,0,2.5-0.7,2.5-1.5c0-0.7-0.6-0.9-1.7-0.9h-1.3c-0.5,0-0.9,0-1.3-0.1
				c-0.5,0.4-0.7,0.8-0.7,1.2C131.2,187.6,132.2,188.1,133.6,188.1z M135,179.2c0-1.2-0.7-1.8-1.6-1.8c-0.9,0-1.6,0.7-1.6,1.8
				c0,1.2,0.7,1.9,1.6,1.9C134.3,181.1,135,180.4,135,179.2z"/>
			<path d="M139.7,173.2c0-0.7,0.6-1.3,1.3-1.3s1.3,0.5,1.3,1.3c0,0.7-0.6,1.2-1.3,1.2S139.7,173.9,139.7,173.2z M139.9,176.1h2.2
				v9.3h-2.2V176.1z"/>
			<path d="M144.8,176.1h2.2v5.6c0,1.5,0.4,2.1,1.4,2.1c0.8,0,1.4-0.4,2.1-1.3v-6.4h2.2v9.3h-1.8l-0.2-1.4h-0.1
				c-0.8,1-1.7,1.6-3,1.6c-2,0-2.9-1.3-2.9-3.7V176.1z"/>
			<path d="M155.5,176.1h1.8l0.2,1.3h0.1c0.8-0.8,1.8-1.5,3.1-1.5c2,0,2.9,1.3,2.9,3.7v5.9h-2.2v-5.6c0-1.5-0.4-2.1-1.5-2.1
				c-0.8,0-1.3,0.4-2.1,1.2v6.5h-2.2V176.1z"/>
			<path d="M166.8,185.1L166.8,185.1c-0.5-0.4-0.8-0.9-0.8-1.6c0-0.7,0.5-1.3,1-1.7v-0.1c-0.6-0.5-1.2-1.4-1.2-2.5
				c0-2.1,1.7-3.3,3.7-3.3c0.5,0,1,0.1,1.4,0.2h3.3v1.6h-1.7c0.3,0.4,0.5,0.9,0.5,1.6c0,2.1-1.6,3.2-3.5,3.2c-0.4,0-0.9-0.1-1.3-0.2
				c-0.3,0.2-0.5,0.5-0.5,0.9c0,0.5,0.4,0.9,1.5,0.9h1.7c2.2,0,3.4,0.7,3.4,2.3c0,1.8-1.9,3.3-5,3.3c-2.2,0-3.9-0.8-3.9-2.4
				C165.5,186.3,166,185.7,166.8,185.1z M169.7,188.1c1.5,0,2.5-0.7,2.5-1.5c0-0.7-0.6-0.9-1.7-0.9h-1.3c-0.5,0-0.9,0-1.3-0.1
				c-0.5,0.4-0.7,0.8-0.7,1.2C167.3,187.6,168.2,188.1,169.7,188.1z M171.1,179.2c0-1.2-0.7-1.8-1.6-1.8c-0.9,0-1.6,0.7-1.6,1.8
				c0,1.2,0.7,1.9,1.6,1.9C170.4,181.1,171.1,180.4,171.1,179.2z"/>
			<path d="M175.7,173.2c0-0.7,0.6-1.3,1.3-1.3s1.3,0.5,1.3,1.3c0,0.7-0.6,1.2-1.3,1.2S175.7,173.9,175.7,173.2z M176,176.1h2.2v9.3
				H176V176.1z"/>
			<path d="M184.8,176.1h2.2v5.6c0,1.5,0.4,2.1,1.4,2.1c0.8,0,1.4-0.4,2.1-1.3v-6.4h2.2v9.3h-1.8l-0.2-1.4h-0.1
				c-0.8,1-1.7,1.6-3,1.6c-2,0-2.9-1.3-2.9-3.7V176.1z"/>
			<path d="M195.4,176.1h1.8l0.2,1.3h0.1c0.8-0.8,1.8-1.5,3.1-1.5c2,0,2.9,1.3,2.9,3.7v5.9h-2.2v-5.6c0-1.5-0.4-2.1-1.5-2.1
				c-0.8,0-1.3,0.4-2.1,1.2v6.5h-2.2V176.1z"/>
			<path d="M211.2,179.5c0-1-0.4-1.8-1.7-1.8c-0.9,0-1.8,0.4-2.6,0.9l-0.8-1.5c1-0.6,2.3-1.2,3.8-1.2c2.3,0,3.5,1.4,3.5,4v5.5h-1.8
				l-0.2-1h-0.1c-0.8,0.7-1.8,1.3-2.9,1.3c-1.6,0-2.8-1.1-2.8-2.7C205.7,180.9,207.3,179.9,211.2,179.5z M209.1,183.9
				c0.8,0,1.3-0.4,2-1v-2.1c-2.5,0.3-3.4,1-3.4,1.9C207.8,183.6,208.3,183.9,209.1,183.9z"/>
			<path d="M224.7,173.7c-0.3-0.2-0.7-0.2-1-0.2c-0.8,0-1.2,0.5-1.2,1.6v1h1.8v1.7h-1.8v7.6h-2.2v-7.6H219v-1.6l1.3-0.1v-1
				c0-1.9,0.9-3.3,3.1-3.3c0.7,0,1.3,0.2,1.7,0.3L224.7,173.7z"/>
			<path d="M229.5,175.9c2.3,0,4.4,1.8,4.4,4.9c0,3.1-2.1,4.9-4.4,4.9c-2.3,0-4.4-1.8-4.4-4.9C225.1,177.7,227.2,175.9,229.5,175.9z
				 M229.5,183.9c1.4,0,2.2-1.2,2.2-3.1c0-1.9-0.8-3.1-2.2-3.1s-2.2,1.2-2.2,3.1C227.4,182.6,228.2,183.9,229.5,183.9z"/>
			<path d="M236.5,177.8h-1.3v-1.6l1.4-0.1l0.3-2.5h1.8v2.5h2.4v1.7h-2.4v4.4c0,1.1,0.4,1.6,1.3,1.6c0.3,0,0.7-0.1,1-0.2l0.4,1.6
				c-0.5,0.2-1.2,0.3-1.9,0.3c-2.2,0-3-1.4-3-3.4V177.8z"/>
			<path d="M246.6,175.9c2.3,0,4.4,1.8,4.4,4.9c0,3.1-2.1,4.9-4.4,4.9c-2.3,0-4.4-1.8-4.4-4.9C242.2,177.7,244.3,175.9,246.6,175.9z
				 M246.6,183.9c1.4,0,2.2-1.2,2.2-3.1c0-1.9-0.8-3.1-2.2-3.1c-1.4,0-2.2,1.2-2.2,3.1C244.5,182.6,245.3,183.9,246.6,183.9z"/>
		</g>
	</g>
</g>
</svg>
