<?xml version="1.0" encoding="utf-8"?>
<!-- Generator: Adobe Illustrator 21.0.0, SVG Export Plug-In . SVG Version: 6.00 Build 0)  -->
<svg version="1.1" id="Livello_1" xmlns="http://www.w3.org/2000/svg" xmlns:xlink="http://www.w3.org/1999/xlink" x="0px" y="0px"
	 viewBox="0 0 292.5 302" style="enable-background:new 0 0 292.5 302;" xml:space="preserve">
<style type="text/css">
	.st0{fill:#F3D0B2;stroke:#50413A;stroke-width:4;stroke-miterlimit:10;stroke-dasharray:30;}
	.st1{fill:#FFFFFF;}
</style>
<g>
	<path class="st0" d="M140.3,141.2c-4.1,10.5-17.6,38.1-51.5,54.7c-42.6,20.9-27.6,61.2-29.9,67.9c0,0-54.5,24.6-52.3-31.4
		c0,0-14.2,73.2,62,59c0,0-1.8,6.7,5.1,7.5c6.9,0.7,89,0,89,0s26.1-3.7,0-29.1c0,0,13.8-10.5,13.4-16.4l0,43.3
		c0,0,32.1,3.4,37.7-0.4c5.6-3.7,6-14.9-6.7-17.9c-12.6-3,11.8-118.8-5.1-137.2"/>
	<path class="st0" d="M206.4,137.1c5.9-5.8,14.5-18,7.6-36c0,0,20.9-24.9,14.4-62.2c23.4,30.4-15.4,71.2,16.9,87.1
		c25.9,7.5,51.8-26.4,38.3-73.7C270.2,5,220.9,11.5,212.5,17.5c0,0-48.8-20.4-77.4,2.2c0,0-29.5-21.6-60.1-10.7
		C44.4,20,3.8,69.8,22,81.5c9.9,6.3,30.8,8.9,40.3-1.5c13.2-17.2,42.6-21.5,51.9-33.4c0,0,6,38.1,20.9,50.8c0,0-20.9,23.9,6.7,39.6
		c0,0,0,0.1,0,0.2"/>
</g>
<circle class="st1" cx="174.3" cy="146.7" r="6"/>
</svg>
