<?xml version="1.0" encoding="utf-8"?>
<!-- Generator: Adobe Illustrator 21.0.0, SVG Export Plug-In . SVG Version: 6.00 Build 0)  -->
<svg version="1.1" id="Livello_1" xmlns="http://www.w3.org/2000/svg" xmlns:xlink="http://www.w3.org/1999/xlink" x="0px" y="0px"
	 viewBox="0 0 363 361" style="enable-background:new 0 0 363 361;" xml:space="preserve">
<style type="text/css">
	.st0{fill:#DFDFDF;}
	.st1{fill:#FFFFFF;}
	.st2{fill:#00ACC1;}
	.st3{fill:#FF7043;}
	.st4{fill:#BDBDBD;}
	.st5{fill:#26C6DA;}
	.st6{fill:#616161;}
	.st7{fill:#EEEEEE;}
</style>
<g>
	<g>
		<path class="st0" d="M285,121.2v146H121l-26.4-26.4V121.2c0-5.6,4.5-10.1,10.1-10.1h170.2C280.5,111,285,115.6,285,121.2z"/>
		<path class="st0" d="M285,141.4H94.6v-20.2c0-5.6,4.5-10.1,10.1-10.1h170.2c5.6,0,10.1,4.5,10.1,10.1V141.4z"/>
		<rect x="226.7" y="158.3" class="st0" width="13.9" height="13.9"/>
		<rect x="204.8" y="158.3" class="st0" width="13.9" height="13.9"/>
		<rect x="182.9" y="158.3" class="st0" width="13.9" height="13.9"/>
		<rect x="161" y="158.3" class="st0" width="13.9" height="13.9"/>
		<rect x="139.1" y="158.3" class="st0" width="13.9" height="13.9"/>
		<rect x="117.2" y="158.3" class="st0" width="13.9" height="13.9"/>
		<rect x="248.6" y="181.6" class="st0" width="13.9" height="13.9"/>
		<rect x="226.7" y="181.6" class="st0" width="13.9" height="13.9"/>
		<rect x="204.8" y="181.6" class="st0" width="13.9" height="13.9"/>
		<rect x="182.9" y="181.6" class="st0" width="13.9" height="13.9"/>
		<rect x="161" y="181.6" class="st0" width="13.9" height="13.9"/>
		<rect x="139.1" y="181.6" class="st0" width="13.9" height="13.9"/>
		<rect x="117.2" y="181.6" class="st0" width="13.9" height="13.9"/>
		<rect x="248.6" y="205" class="st0" width="13.9" height="13.9"/>
		<rect x="226.7" y="205" class="st0" width="13.9" height="13.9"/>
		<rect x="204.8" y="205" class="st0" width="13.9" height="13.9"/>
		<rect x="182.9" y="205" class="st0" width="13.9" height="13.9"/>
		<rect x="161" y="205" class="st0" width="13.9" height="13.9"/>
		<rect x="139.1" y="205" class="st0" width="13.9" height="13.9"/>
		<rect x="117.2" y="205" class="st0" width="13.9" height="13.9"/>
		<rect x="248.6" y="228.3" class="st0" width="13.9" height="13.9"/>
		<rect x="226.7" y="228.3" class="st0" width="13.9" height="13.9"/>
		<rect x="204.8" y="228.3" class="st0" width="13.9" height="13.9"/>
		<rect x="182.9" y="228.3" class="st0" width="13.9" height="13.9"/>
		<rect x="161" y="228.3" class="st0" width="13.9" height="13.9"/>
		<path class="st0" d="M140.1,128h-16v-15c0-4.4,3.6-8,8-8l0,0c4.4,0,8,3.6,8,8V128z"/>
		<path class="st0" d="M255.5,128h-16v-15c0-4.4,3.6-8,8-8l0,0c4.4,0,8,3.6,8,8V128z"/>
		<path class="st0" d="M140.1,122.7h-16v-15c0-4.4,3.6-8,8-8l0,0c4.4,0,8,3.6,8,8V122.7z"/>
		<path class="st0" d="M255.5,122.7h-16v-15c0-4.4,3.6-8,8-8l0,0c4.4,0,8,3.6,8,8V122.7z"/>
		<circle class="st0" cx="132.1" cy="108.1" r="4.9"/>
		<circle class="st0" cx="247.5" cy="108.1" r="4.9"/>
		<polygon class="st0" points="121,240.8 94.6,240.8 121,267.2 		"/>
	</g>
	<g>
		<g>
			<g>
				<path class="st1" d="M281,117.2v146H117l-26.4-26.4V117.2c0-5.6,4.5-10.1,10.1-10.1h170.2C276.5,107,281,111.6,281,117.2z"/>
			</g>
			<path class="st2" d="M281,137.4H90.6v-20.2c0-5.6,4.5-10.1,10.1-10.1h170.2c5.6,0,10.1,4.5,10.1,10.1V137.4z"/>
			<g>
				<rect x="222.7" y="154.3" class="st3" width="13.9" height="13.9"/>
				<rect x="200.8" y="154.3" class="st4" width="13.9" height="13.9"/>
				<rect x="178.9" y="154.3" class="st4" width="13.9" height="13.9"/>
				<rect x="157" y="154.3" class="st4" width="13.9" height="13.9"/>
				<rect x="135.1" y="154.3" class="st4" width="13.9" height="13.9"/>
				<rect x="113.2" y="154.3" class="st4" width="13.9" height="13.9"/>
				<rect x="244.6" y="177.6" class="st3" width="13.9" height="13.9"/>
				<rect x="222.7" y="177.6" class="st3" width="13.9" height="13.9"/>
				<rect x="200.8" y="177.6" class="st4" width="13.9" height="13.9"/>
				<rect x="178.9" y="177.6" class="st4" width="13.9" height="13.9"/>
				<rect x="157" y="177.6" class="st4" width="13.9" height="13.9"/>
				<rect x="135.1" y="177.6" class="st4" width="13.9" height="13.9"/>
				<rect x="113.2" y="177.6" class="st4" width="13.9" height="13.9"/>
				<rect x="244.6" y="201" class="st3" width="13.9" height="13.9"/>
				<rect x="222.7" y="201" class="st3" width="13.9" height="13.9"/>
				<rect x="200.8" y="201" class="st4" width="13.9" height="13.9"/>
				<rect x="178.9" y="201" class="st4" width="13.9" height="13.9"/>
				<rect x="157" y="201" class="st4" width="13.9" height="13.9"/>
				<rect x="135.1" y="201" class="st4" width="13.9" height="13.9"/>
				<rect x="113.2" y="201" class="st4" width="13.9" height="13.9"/>
				<rect x="244.6" y="224.3" class="st3" width="13.9" height="13.9"/>
				<rect x="222.7" y="224.3" class="st3" width="13.9" height="13.9"/>
				<rect x="200.8" y="224.3" class="st4" width="13.9" height="13.9"/>
				<rect x="178.9" y="224.3" class="st4" width="13.9" height="13.9"/>
				<rect x="157" y="224.3" class="st4" width="13.9" height="13.9"/>
			</g>
			<path class="st5" d="M136.1,124h-16v-15c0-4.4,3.6-8,8-8l0,0c4.4,0,8,3.6,8,8V124z"/>
			<path class="st5" d="M251.5,124h-16v-15c0-4.4,3.6-8,8-8l0,0c4.4,0,8,3.6,8,8V124z"/>
			<path class="st6" d="M136.1,118.7h-16v-15c0-4.4,3.6-8,8-8l0,0c4.4,0,8,3.6,8,8V118.7z"/>
			<path class="st6" d="M251.5,118.7h-16v-15c0-4.4,3.6-8,8-8l0,0c4.4,0,8,3.6,8,8V118.7z"/>
			<circle class="st7" cx="128.1" cy="104.1" r="4.9"/>
			<circle class="st7" cx="243.5" cy="104.1" r="4.9"/>
			<polygon class="st4" points="117,236.8 90.6,236.8 117,263.2 			"/>
		</g>
	</g>
</g>
</svg>
