<?xml version="1.0" encoding="utf-8"?>
<!-- Generator: Adobe Illustrator 21.0.0, SVG Export Plug-In . SVG Version: 6.00 Build 0)  -->
<svg version="1.1" id="Livello_1" xmlns="http://www.w3.org/2000/svg" xmlns:xlink="http://www.w3.org/1999/xlink" x="0px" y="0px"
	 viewBox="0 0 389 382" style="enable-background:new 0 0 389 382;" xml:space="preserve">
<style type="text/css">
	.st0{fill:#F2CFB1;stroke:#4F4139;stroke-width:4;stroke-miterlimit:10;stroke-dasharray:30;}
</style>
<g>
	<path class="st0" d="M191.8,173.1c-2.5,6.5-10.9,23.6-32,33.9c-26.4,13-17.1,38-18.5,42.1c0,0-33.8,15.3-32.4-19.4
		c0,0-8.8,45.4,38.4,36.6c0,0-1.1,4.2,3.1,4.6c4.3,0.5,55.2,0,55.2,0s16.2-2.3,0-18.1c0,0,8.6-6.5,8.3-10.2v26.9
		c0,0,19.9,2.1,23.4-0.2c3.5-2.3,3.7-9.3-4.2-11.1c-7.8-1.8,7.3-73.7-3.1-85.1"/>
	<path class="st0" d="M232.8,170.6c3.6-3.6,9-11.2,4.7-22.3c0,0,13-15.4,9-38.6c14.5,18.8-9.6,44.1,10.5,54
		c16,4.6,32.1-16.4,23.8-45.7c-8.3-29.3-38.9-25.3-44.1-21.6c0,0-30.2-12.7-48,1.4c0,0-18.3-13.4-37.3-6.6s-44.2,37.7-32.9,45
		c6.1,3.9,19.1,5.5,25-0.9c8.2-10.7,26.4-13.3,32.2-20.7c0,0,3.7,23.6,13,31.5c0,0-13,14.8,4.2,24.5c0,0,0,0,0,0.1"/>
</g>
</svg>
