<?xml version="1.0" encoding="utf-8"?>
<!-- Generator: Adobe Illustrator 21.0.0, SVG Export Plug-In . SVG Version: 6.00 Build 0)  -->
<svg version="1.1" id="Livello_1" xmlns="http://www.w3.org/2000/svg" xmlns:xlink="http://www.w3.org/1999/xlink" x="0px" y="0px"
	 viewBox="0 0 120 44" style="enable-background:new 0 0 120 44;" xml:space="preserve">
<style type="text/css">
	.st0{fill:#FBB03B;}
	.st1{fill:#FFFFFF;stroke:#FFFFFF;stroke-miterlimit:10;}
	.st2{opacity:0.33;fill:#FFFFFF;enable-background:new    ;}
	.st3{fill:#FFFFFF;stroke:#0071BC;stroke-width:3;stroke-miterlimit:10;}
</style>
<path class="st0" d="M107.2,3.9c-0.6-1.8-2.3-3-4.3-3h-1.4H18.3h-1.6c-1.9,0-3.6,1.2-4.3,3L1,37c-1,2.9,1.2,6,4.3,6h109.2
	c3.1,0,5.3-3.1,4.3-6L107.2,3.9z"/>
<g>
	<path class="st1" d="M88.6,28.2c0,4.4-3.5,7.9-7.9,7.9c-3.5,0-6.4-2.2-7.5-5.3h-30c-1.1,3.2-4,5.3-7.5,5.3c-4.4,0-7.9-3.5-7.9-7.9
		c0-2.1,0.8-4.1,2.2-5.5c0.1-0.1,0.2-0.2,0.3-0.3c-1.6-1.5-2.5-3.5-2.5-5.8c0-4.4,3.5-7.9,7.9-7.9c3.5,0,6.4,2.2,7.5,5.3h30
		c1.1-3.2,4-5.3,7.5-5.3c4.4,0,7.9,3.5,7.9,7.9c0,2.3-1,4.4-2.6,5.8C87.6,23.8,88.6,25.9,88.6,28.2z"/>
</g>
<ellipse transform="matrix(0.9484 -0.3171 0.3171 0.9484 -1.3957 34.7908)" class="st2" cx="106.2" cy="21.7" rx="2.7" ry="16.4"/>
<line class="st3" x1="58" y1="17" x2="58" y2="29"/>
<line class="st3" x1="52" y1="22.7" x2="64" y2="22.7"/>
</svg>
