<?xml version="1.0" encoding="utf-8"?>
<!-- Generator: Adobe Illustrator 21.0.0, SVG Export Plug-In . SVG Version: 6.00 Build 0)  -->
<svg version="1.1" id="Livello_1" xmlns="http://www.w3.org/2000/svg" xmlns:xlink="http://www.w3.org/1999/xlink" x="0px" y="0px"
	 viewBox="0 0 397 389" style="enable-background:new 0 0 397 389;" xml:space="preserve">
<style type="text/css">
	.st0{fill:#FFA600;}
	.st1{fill:#FFFFFF;}
	.st2{fill:#ED7E00;}
	.st3{fill:#3F73A1;}
	.st4{fill:#315B80;}
	.st5{fill:#58BAA6;}
	.st6{fill:#328070;}
</style>
<g>
	<g>
		<path class="st0" d="M260.6,98.5h-73.8c-14.3,0-26,11.7-26,26V252c0,14.3,11.7,26,26,26h73.8c14.3,0,26-11.7,26-26V124.5
			C286.6,110.2,274.9,98.5,260.6,98.5z"/>
		<path class="st1" d="M277.3,113.6H170c-0.2,0-0.4,0.2-0.4,0.4v147.1c0,0.2,0.2,0.4,0.4,0.4h107.2c0.2,0,0.4-0.2,0.4-0.4V113.9
			C277.6,113.7,277.5,113.6,277.3,113.6z"/>
		<path class="st2" d="M237.5,103h-27.6c-0.7,0-1.4,0.6-1.4,1.4l0,0c0,0.7,0.6,1.4,1.4,1.4h27.6c0.7,0,1.4-0.6,1.4-1.4l0,0
			C238.8,103.6,238.2,103,237.5,103z"/>
		<circle class="st2" cx="223.6" cy="269.5" r="4.6"/>
	</g>
</g>
<g>
	<g>
		<path class="st3" d="M136.5,152h48.4c9.2,0,16.7,7.5,16.7,16.7v92.7c0,9.2-7.5,16.7-16.7,16.7h-48.4c-9.2,0-16.7-7.5-16.7-16.7
			v-92.7C119.9,159.5,127.4,152,136.5,152z"/>
		<rect x="124.7" y="165.2" class="st1" width="72.1" height="95.3"/>
		<path class="st4" d="M148.6,159h24.2c0.7,0,1.2-0.5,1.2-1.2l0,0c0-0.7-0.5-1.2-1.2-1.2h-24.2c-0.7,0-1.2,0.5-1.2,1.2l0,0
			C147.4,158.4,148,159,148.6,159z"/>
		<path class="st4" d="M140.3,271.3h40.8c1,0,1.9-0.8,1.9-1.9l0,0c0-1-0.8-1.9-1.9-1.9h-40.8c-1,0-1.9,0.8-1.9,1.9l0,0
			C138.5,270.4,139.3,271.3,140.3,271.3z"/>
		<circle class="st3" cx="160.7" cy="269.4" r="7.3"/>
		<circle class="st4" cx="160.7" cy="269.4" r="5.1"/>
	</g>
	<g>
		<g>
			<circle class="st1" cx="148.5" cy="199" r="3.5"/>
			<circle class="st1" cx="159.8" cy="199" r="3.5"/>
			<circle class="st1" cx="171.1" cy="199" r="3.5"/>
		</g>
	</g>
</g>
<g>
	<g>
		<path class="st5" d="M107.6,194.7h24.6c4.7,0,8.5,3.8,8.5,8.5v66.3c0,4.7-3.8,8.5-8.5,8.5h-24.6c-4.7,0-8.5-3.8-8.5-8.5v-66.3
			C99.1,198.5,102.9,194.7,107.6,194.7z"/>
		<rect x="102.1" y="203.4" class="st1" width="35.6" height="63"/>
		<path class="st6" d="M111.9,199.3h16c0.4,0,0.8-0.4,0.8-0.8l0,0c0-0.4-0.4-0.8-0.8-0.8h-16c-0.4,0-0.8,0.4-0.8,0.8l0,0
			C111.1,199,111.5,199.3,111.9,199.3z"/>
		<path class="st6" d="M106.4,273.5h27c0.7,0,1.2-0.6,1.2-1.2l0,0c0-0.7-0.6-1.2-1.2-1.2h-27c-0.7,0-1.2,0.6-1.2,1.2l0,0
			C105.2,273,105.7,273.5,106.4,273.5z"/>
		<circle class="st5" cx="119.9" cy="272.3" r="4.8"/>
		<circle class="st6" cx="119.9" cy="272.3" r="3.4"/>
	</g>
</g>
</svg>
