<?xml version="1.0" encoding="utf-8"?>
<!-- Generator: Adobe Illustrator 21.0.0, SVG Export Plug-In . SVG Version: 6.00 Build 0)  -->
<svg version="1.1" id="Livello_1" xmlns="http://www.w3.org/2000/svg" xmlns:xlink="http://www.w3.org/1999/xlink" x="0px" y="0px"
	 viewBox="0 0 300 326.7" style="enable-background:new 0 0 300 326.7;" xml:space="preserve">
<style type="text/css">
	.st0{fill:#FFFFFF;}
	.st1{fill:#C62828;stroke:#FFFFFF;stroke-width:5;stroke-miterlimit:10;}
</style>
<g>
	<path class="st0" d="M39.3,232.8h12.5l5.4-26.2h12.3l-13.5,65.8H43.7l6.8-33.1H38l-6.8,33.1H18.9l12.3-59.8
		c-7.5,3.3-11.9,9.9-11.9,19.3c0,4.5,1.1,5.2,1.2,6c-5.9,0-9.1-2.2-9.1-8.5c0-11.7,15.7-22.9,29.9-22.9c1.2,0,2.3,0.1,3.4,0.2
		L39.3,232.8z"/>
	<path class="st0" d="M85,228.4l-6.1,29.9c-0.3,1.1-0.3,2-0.3,2.8c0,2.5,1.1,3.3,3.5,3.3c1.5,0,2.2-0.3,2.7-0.5
		c-0.4,6.2-4.8,9.1-9.4,9.1c-5.1,0-9.1-3.2-9.1-10.6c0-1.7,0.3-3.6,0.7-5.7l5.8-28.2H85z M81.2,209.7c3.7,0,6.8,3.2,6.8,7
		c0,3.9-3.1,7-6.8,7c-3.7,0-6.7-3.1-6.7-7C74.5,212.8,77.5,209.7,81.2,209.7z"/>
	<path class="st0" d="M116.9,214.7l-6,29.4c8.6-0.7,14.9-12.2,14.9-21.6c0-6.5-3.1-12-10.5-12c-13.8,0-22,8-22,21.4
		c0,4.5,1.1,5.2,1.2,6c-5.9,0-9.1-2.2-9.1-8.5c0-11.7,15.7-22.9,29.9-22.9c14,0,20.1,8.3,20.1,17.3c0,11.2-9.3,23.6-24.6,23.6h-0.4
		l-5.2,25.1H92.8l11.6-56L116.9,214.7z"/>
	<path class="st0" d="M174.3,228.4l-6.1,29.9c-0.3,1.1-0.3,2-0.3,2.8c0,2.5,1.1,3.8,3.5,3.8c3.3,0,5.6-3.9,6.9-8.3h3.6
		c-4.8,14.3-12.5,16.3-17.1,16.3c-4.8,0-7.8-2.8-8.3-8.1c-2.6,4-6.6,8.1-12.7,8.1c-5.8,0-11.3-3.7-11.3-14.2
		c0-11.9,7.1-30.8,21.9-30.8c4.8,0,6.9,1.9,6.9,4.5v0.6l0.9-4.7H174.3z M145,257.5c0,6.8,2.7,6.9,4.3,6.9c2.5,0,6-2.6,7.1-7.7
		l4.1-19.9c0-1.1-0.8-3.3-3.5-3.3C149.7,233.4,145,249.3,145,257.5z"/>
	<path class="st0" d="M196.3,228.4l-6.1,29.9c-0.2,0.7-0.3,1.5-0.3,2.2c0,2,0.6,3.9,2.6,3.9c3.3,0,5.5-3.3,6.8-7.7l5.8-28.2h12.3
		l-6.1,29.9c-0.3,1.2-0.4,2.4-0.4,3.2c0,1.8,0.9,2.9,2.9,2.9c8.3,0,14.7-19.7,14.7-29.4c-0.3,0.6-2,0.9-2.7,0.9
		c-2,0-3.1-2.6-3.1-4.5c0-2.7,1.7-4.8,5.3-4.8c4.1,0,5.4,3.8,5.4,7.7c0,14.1-6.9,38.6-24.2,38.6c-5.5,0-9.2-2.5-10.2-7.4
		c-4.2,6.3-8.7,7.4-12.1,7.4c-5.1,0-9.1-3.2-9.1-10.6c0-1.7,0.3-3.6,0.7-5.7l5.8-28.2H196.3z"/>
	<path class="st0" d="M259.3,225.7c1,22.8,1.9,26.2,1.9,32c0,11.4-10,15.2-17,15.2c-8.7,0-12.4-5.9-12.4-11.3c0-4,2.2-7,4.5-8.2
		c4.8-8.7,7.8-17.4,10.5-26L259.3,225.7z M238.6,261c-0.9,0-1.9-0.3-2.3-1.1c0,4.1,1.4,6.2,5.2,6.2s7.4-2,7.4-8.2
		c0-4.6-0.8-7.3-1.6-20.9c-1.7,5.7-4.1,11-6.9,16.6c1.1,0.5,2,1.6,2,3.1C242.3,258.8,240.8,261,238.6,261z"/>
</g>
<ellipse class="st1" cx="144.5" cy="90.7" rx="80.1" ry="82.8"/>
<g>
	<g>
		<path class="st0" d="M129.8,85.6c7.6,0,13.8-8.6,13.8-19.2c0-10.6-6.2-19.2-13.8-19.2c-7.6,0-13.8,8.6-13.8,19.2
			C116,77,122.2,85.6,129.8,85.6z"/>
		<path class="st0" d="M170.8,104.3c-0.3-0.4-0.6-0.8-0.7-1.1c-3.1-6.8-11.6-14.9-25.3-15.1l-0.5,0c-13.5,0-21.9,7.6-25.3,14.8
			c-0.1,0.2-0.4,0.6-0.6,0.9c-0.3,0.4-0.6,0.8-0.9,1.2c-2.8,4.6-4.3,9.7-4.1,14.5c0.2,5.1,2.3,9.1,5.8,11.5c1.4,0.9,2.9,1.4,4.5,1.4
			c3.3,0,6.3-1.9,9.8-4.1c2.2-1.4,4.5-2.9,7.1-4c0.3-0.1,1.5-0.2,3.4-0.2c2.3,0,3.9,0.2,4.3,0.3c2.5,1.1,4.7,2.6,6.8,4.1
			c3.2,2.2,6.3,4.3,9.6,4.3c1.4,0,2.8-0.4,4.1-1.2c7.2-4.2,8.6-15.8,3.1-25.8C171.5,105.2,171.1,104.7,170.8,104.3z"/>
		<path class="st0" d="M159.2,85.6c7.6,0,13.8-8.6,13.8-19.2c0-10.6-6.2-19.2-13.8-19.2c-7.6,0-13.8,8.6-13.8,19.2
			C145.4,77,151.6,85.6,159.2,85.6z"/>
		<path class="st0" d="M181.9,75.7c-6.1,0-10.9,6.6-10.9,14.9c0,8.4,4.8,14.9,10.9,14.9c6.1,0,10.9-6.6,10.9-14.9
			C192.8,82.3,188,75.7,181.9,75.7z"/>
		<path class="st0" d="M119.1,90.7c0-8.4-4.8-14.9-10.9-14.9c-6.1,0-10.9,6.6-10.9,14.9c0,8.4,4.8,14.9,10.9,14.9
			C114.4,105.6,119.1,99,119.1,90.7z"/>
	</g>
</g>
<g>
	<path class="st0" d="M213.3,284.6c3,2.9,4.5,6.6,4.5,11.2c0,4.6-1.5,8.3-4.5,11.2c-3,2.9-6.9,4.3-11.8,4.3H192v-31h9.4
		C206.4,280.3,210.3,281.7,213.3,284.6z M196.8,284.8v22h4.5c3.5,0,6.3-1,8.3-3.1c2.1-2.1,3.1-4.7,3.1-8c0-3.3-1-6-3.1-8
		s-4.8-3-8.3-3H196.8z"/>
	<path class="st0" d="M241.9,291.2c2.3,2.3,3.5,5.2,3.5,8.6s-1.2,6.2-3.5,8.6s-5.1,3.5-8.4,3.5c-3.3,0-6.1-1.2-8.4-3.5
		c-2.3-2.3-3.4-5.2-3.4-8.6s1.1-6.2,3.4-8.6c2.3-2.3,5.1-3.5,8.4-3.5C236.8,287.7,239.6,288.9,241.9,291.2z M228.6,294.4
		c-1.3,1.4-2,3.2-2,5.4c0,2.1,0.7,3.9,2,5.3c1.3,1.4,3,2.1,5,2.1c2,0,3.6-0.7,5-2.1c1.3-1.4,2-3.2,2-5.3c0-2.2-0.7-4-2-5.4
		c-1.3-1.4-3-2.2-4.9-2.2C231.5,292.3,229.9,293,228.6,294.4z"/>
	<path class="st0" d="M272.7,288.2v20.7c0,3.6-1,6.4-3,8.4s-4.7,3-8.1,3c-4.2,0-7.7-1.5-10.7-4.4l2.6-3.4c2.6,2.2,5.2,3.3,7.8,3.3
		c2,0,3.7-0.6,4.9-1.7c1.2-1.1,1.8-2.7,1.8-4.9v-1.6c-1.8,2.2-4.3,3.2-7.5,3.2c-3.1,0-5.7-1.1-7.8-3.2c-2.1-2.2-3.1-4.9-3.1-8.3
		s1-6.2,3.1-8.3c2.1-2.2,4.7-3.2,7.8-3.2c3.5,0,6.1,1.3,7.9,3.8v-3.3H272.7z M266,304.6c1.3-1.3,2-3.1,2-5.4c0-2.4-0.7-4.1-2-5.3
		c-1.3-1.2-2.9-1.8-4.7-1.8c-1.9,0-3.6,0.7-4.9,2c-1.3,1.3-2,3-2,5.2c0,2.2,0.7,3.9,2,5.2c1.3,1.3,2.9,2,4.9,2
		C263.1,306.5,264.7,305.9,266,304.6z"/>
	<path class="st0" d="M294.5,291.3l-2.6,3.1c-1.5-1.6-3.2-2.4-5.2-2.4c-2,0-3,0.7-3,2.2c0,0.6,0.2,1.1,0.7,1.5
		c0.4,0.4,1.2,0.8,2.3,1.2l2.1,0.9c2.1,0.9,3.7,1.9,4.6,2.9c1,1,1.5,2.4,1.5,4c0,2.2-0.8,4-2.4,5.2s-3.5,1.9-5.9,1.9
		c-3.8,0-6.8-1.5-9-4.5l2.7-3.1c2,2.2,4.1,3.3,6.3,3.3c1,0,1.9-0.2,2.6-0.7s1-1.1,1-1.9c0-0.7-0.3-1.2-0.8-1.6s-1.3-0.8-2.4-1.3
		l-2.3-1c-2-0.8-3.4-1.8-4.4-2.8c-1-1-1.4-2.3-1.4-3.9c0-2.1,0.7-3.7,2.2-4.9s3.4-1.8,5.6-1.8C289.9,287.7,292.5,288.9,294.5,291.3z
		"/>
</g>
</svg>
