<?xml version="1.0" encoding="utf-8"?>
<!-- Generator: Adobe Illustrator 21.0.0, SVG Export Plug-In . SVG Version: 6.00 Build 0)  -->
<svg version="1.1" id="Livello_1" xmlns="http://www.w3.org/2000/svg" xmlns:xlink="http://www.w3.org/1999/xlink" x="0px" y="0px"
	 viewBox="0 0 381.6 381.5" style="enable-background:new 0 0 381.6 381.5;" xml:space="preserve">
<style type="text/css">
	.st0{fill:#C82828;}
	.st1{fill:#FFFFFF;}
</style>
<circle class="st0" cx="190.8" cy="190.8" r="190.8"/>
<g>
	<g>
		<path class="st1" d="M327.6,190.8c7.6-7,12.4-17,12.4-28.2c0-21.2-17.2-38.2-38.4-38.2c-16.7,0-31,10.5-36.2,25.8l-145,0
			c-5.2-15.3-19.5-25.8-36.2-25.8c-21.2,0-38.4,17.1-38.4,38.3c0,11.2,4.8,21.2,12.4,28.2c-7.6,7-12.4,17-12.4,28.2
			c0,21.2,17.2,38.2,38.4,38.2c16.7,0,30.9-10.5,36.2-25.8h145c5.2,15.3,19.5,25.8,36.2,25.8c21.2,0,38.4-17.1,38.4-38.3
			C340,207.7,335.2,197.8,327.6,190.8z"/>
	</g>
</g>
</svg>
