<?xml version="1.0" encoding="utf-8"?>
<!-- Generator: Adobe Illustrator 21.0.0, SVG Export Plug-In . SVG Version: 6.00 Build 0)  -->
<svg version="1.1" id="Livello_1" xmlns="http://www.w3.org/2000/svg" xmlns:xlink="http://www.w3.org/1999/xlink" x="0px" y="0px"
	 viewBox="0 0 72 46" style="enable-background:new 0 0 72 46;" xml:space="preserve">
<style type="text/css">
	.st0{fill:#BF360C;}
	.st1{opacity:0.33;fill:#FFFFFF;enable-background:new    ;}
	.st2{fill:#E2B991;}
</style>
<g>
	<g>
		<path class="st0" d="M60.5,21.1c-0.3-1-1.3-1.7-2.3-1.7h-0.8H11.7h-0.9c-1.1,0-2,0.7-2.3,1.7L2.1,39.3c-0.6,1.6,0.6,3.3,2.3,3.3
			h60c1.7,0,2.9-1.7,2.3-3.3L60.5,21.1z"/>
	</g>
</g>
<ellipse transform="matrix(0.9484 -0.3171 0.3171 0.9484 -6.4541 19.9618)" class="st1" cx="58.1" cy="29.8" rx="1" ry="6.4"/>
<path class="st2" d="M50.9,13.5c-0.6-1.8-2.2-3.2-4.2-3.6C45.2,5.3,40.9,2,35.9,2c-5.1,0-9.5,3.4-10.9,8.1c-0.9-0.2-1.8-0.3-2.8-0.3
	c-5.1,0-9.5,3.4-10.9,8.1h45.3c-0.5-2.5-2.7-4.4-5.4-4.4C51,13.5,50.9,13.5,50.9,13.5z"/>
</svg>
