<?xml version="1.0" encoding="utf-8"?>
<!-- Generator: Adobe Illustrator 21.0.0, SVG Export Plug-In . SVG Version: 6.00 Build 0)  -->
<svg version="1.1" id="Livello_1" xmlns="http://www.w3.org/2000/svg" xmlns:xlink="http://www.w3.org/1999/xlink" x="0px" y="0px"
	 viewBox="0 0 750 1333" style="enable-background:new 0 0 750 1333;" xml:space="preserve">
<style type="text/css">
	.st0{fill:#FCF8F9;}
	.st1{fill:url(#SVGID_1_);}
	.st2{fill:#FAFAFA;}
	.st3{fill:none;stroke:#FFEBEE;stroke-width:9;stroke-miterlimit:10;}
	.st4{fill:none;stroke:#FFEBEE;stroke-width:6;stroke-miterlimit:10;}
	.st5{fill:#F2CFB1;stroke:#4F4139;stroke-width:4;stroke-miterlimit:10;stroke-dasharray:30;}
	.st6{fill:#FFFFFF;}
	.st7{fill:#9FC48D;}
	.st8{fill:#C62828;}
	.st9{fill:url(#SVGID_2_);}
	.st10{fill:none;stroke:#EFEFEF;stroke-miterlimit:10;}
	.st11{opacity:0.54;}
	.st12{fill:none;}
	.st13{fill:#FBB03B;}
	.st14{fill:#0071BC;stroke:#FFFFFF;stroke-miterlimit:10;}
	.st15{opacity:0.33;fill:#FFFFFF;}
	.st16{fill:#FFFFFF;stroke:#FFFFFF;stroke-miterlimit:10;}
	.st17{fill:#FFFFFF;stroke:#0071BC;stroke-width:2;stroke-miterlimit:10;}
	.st18{fill:#E2B991;}
	.st19{fill:#BF360C;}
	.st20{fill:none;stroke:#E2B991;stroke-width:2;stroke-miterlimit:10;}
	.st21{opacity:0.26;fill:#FAFAFA;}
	.st22{fill:#666666;}
	.st23{fill:url(#SVGID_5_);}
	.st24{fill:none;stroke:#F9E178;stroke-width:5;stroke-miterlimit:10;}
	.st25{fill:none;stroke:#F7A537;stroke-width:5;stroke-miterlimit:10;}
	.st26{fill:#006837;}
	.st27{fill:#29ABE2;}
	.st28{filter:url(#Adobe_OpacityMaskFilter);}
	.st29{opacity:0.75;mask:url(#SVGID_8_);}
	.st30{fill:#0F0C01;}
	.st31{fill:#EF5350;}
	.st32{fill:none;stroke:#FFFFFF;stroke-width:5;stroke-miterlimit:10;}
	.st33{fill:url(#SVGID_9_);}
	.st34{fill:none;stroke:#FFFFFF;stroke-width:9;stroke-miterlimit:10;}
	.st35{fill:url(#SVGID_12_);}
	.st36{fill:#F9E178;}
	.st37{fill:#F7A537;}
	.st38{fill-rule:evenodd;clip-rule:evenodd;fill:#FFFFFF;}
	.st39{fill:url(#SVGID_17_);}
	.st40{fill:none;stroke:#AFACAC;stroke-miterlimit:10;}
	.st41{fill:none;stroke:#D32F2F;stroke-width:7;stroke-linecap:round;stroke-miterlimit:10;}
	.st42{fill:none;stroke:#999999;stroke-width:7;stroke-linecap:round;stroke-miterlimit:10;}
	.st43{fill:url(#SVGID_18_);}
	.st44{fill:none;stroke:#0071BC;stroke-width:7;stroke-linecap:round;stroke-miterlimit:10;}
	.st45{fill:#0071BC;}
	.st46{fill:none;stroke:#C1272D;stroke-width:7;stroke-linecap:round;stroke-miterlimit:10;}
	.st47{fill:#C1272D;}
	.st48{fill:#808080;}
	.st49{fill:url(#SVGID_19_);}
	.st50{opacity:8.000000e-02;}
	.st51{fill:url(#SVGID_20_);}
	.st52{fill:none;stroke:#FFFFFF;stroke-miterlimit:10;}
	.st53{fill:url(#SVGID_21_);}
	.st54{fill:url(#SVGID_22_);}
	.st55{fill:url(#SVGID_25_);}
	.st56{fill:#C62828;stroke:#FFFFFF;stroke-width:5;stroke-miterlimit:10;}
</style>
<rect class="st0" width="750" height="1333"/>
<ellipse class="st56" cx="374.7" cy="626.4" rx="194.3" ry="201"/>
<g>
	<g>
		<path class="st6" d="M339.1,614c18.5,0,33.5-20.9,33.5-46.6c0-25.7-15-46.6-33.5-46.6c-18.5,0-33.5,20.9-33.5,46.6
			C305.5,593.2,320.6,614,339.1,614z"/>
		<path class="st6" d="M438.6,659.4c-0.7-1-1.3-1.9-1.7-2.7c-7.5-16.6-28.1-36.2-61.4-36.7l-1.3,0c-32.8,0-53.2,18.5-61.4,35.9
			c-0.3,0.6-0.9,1.4-1.6,2.2c-0.8,1-1.5,1.9-2.2,3c-6.9,11.1-10.4,23.6-9.9,35.2c0.5,12.3,5.5,22.2,14,27.8c3.4,2.3,7.1,3.4,11,3.4
			c8,0,15.3-4.7,23.8-10.1c5.4-3.4,11-7,17.2-9.6c0.7-0.2,3.5-0.6,8.2-0.6c5.5,0,9.5,0.5,10.3,0.8c6,2.8,11.3,6.4,16.5,9.9
			c7.9,5.4,15.3,10.4,23.3,10.4c3.5,0,6.8-0.9,10-2.8c17.4-10.3,20.8-38.4,7.4-62.7C440.2,661.6,439.4,660.5,438.6,659.4z"/>
		<path class="st6" d="M410.4,614c18.5,0,33.6-20.9,33.6-46.6c0-25.7-15.1-46.6-33.6-46.6c-18.5,0-33.6,20.9-33.6,46.6
			C376.9,593.2,391.9,614,410.4,614z"/>
		<path class="st6" d="M465.5,590.1c-14.8,0-26.4,15.9-26.4,36.2c0,20.3,11.6,36.2,26.4,36.2c14.8,0,26.4-15.9,26.4-36.2
			C492,606,480.3,590.1,465.5,590.1z"/>
		<path class="st6" d="M313.2,626.3c0-20.3-11.6-36.2-26.4-36.2c-14.8,0-26.4,15.9-26.4,36.2c0,20.3,11.6,36.2,26.4,36.2
			C301.6,662.6,313.2,646.6,313.2,626.3z"/>
	</g>
</g>
</svg>
